# xmcd
#
# Track frame offsets:
# 150
# 14531
# 28227
# 48313
# 59151
# 77440
# 93199
# 108742
#
# Disc length: 1945 seconds
#
# Revision: 1
# Processed by: cddbd v1.5.2PL0 Copyright (c) Steve Scherf et al.
# Submitted via: Easy CD Ripper v2.27
#
DISCID=65079708
DTITLE=Luxury Kings - Chico Beats The Devil!
DYEAR=2002
DGENRE=Blues
TTITLE0=I Mean To Love You - Luxury Kings
TTITLE1=Open This Letter - Luxury Kings
TTITLE2=Turn My Way - Luxury Kings
TTITLE3=Boozehound - Luxury Kings
TTITLE4=Yo' Sweetness - Luxury Kings
TTITLE5=Run From Home - Luxury Kings
TTITLE6=Sugarlump - Luxury Kings
TTITLE7=Evil Eye and Wicked Grin - Luxury Kings
EXTD=
EXTT0=
EXTT1=
EXTT2=
EXTT3=
EXTT4=
EXTT5=
EXTT6=
EXTT7=
PLAYORDER=
